<?xml version="1.0" encoding="utf-8"?>
<!-- Generator: Adobe Illustrator 19.1.0, SVG Export Plug-In . SVG Version: 6.00 Build 0)  -->
<svg version="1.1" id="Layer_1" xmlns="http://www.w3.org/2000/svg" xmlns:xlink="http://www.w3.org/1999/xlink" x="0px" y="0px"
	 viewBox="-292 273.189 255.566 49.091" style="enable-background:new -292 273.189 255.566 49.091;" xml:space="preserve">
<style type="text/css">
	.st0{fill:#FFFFFF;}
	.st1{fill-rule:evenodd;clip-rule:evenodd;fill:#FFFFFF;}
</style>
<g>
	<polygon class="st0" points="-171.165,286.833 -162.674,310.46 -157.552,310.46 -171.251,274.189 -184.869,310.46 -179.747,310.46 
			"/>
	<rect x="-130.48" y="287.681" class="st0" width="4.583" height="22.779"/>
	<rect x="-101.572" y="287.681" class="st0" width="4.583" height="22.779"/>
	<path class="st0" d="M-91.659,287.681h-2.292v3.504h2.292v13.659c0.007,1.198,0.254,2.217,0.726,3.055
		c0.471,0.831,1.123,1.467,1.947,1.901c0.83,0.435,1.782,0.66,2.853,0.66h2.381v-4.313h-1.707c-0.561,0.008-0.966-0.119-1.228-0.382
		c-0.262-0.262-0.389-0.704-0.389-1.325v-13.254h3.324v-3.504h-3.324v-6.919L-91.659,287.681z"/>
	<polygon class="st0" points="-73.795,309.561 -77.379,319.878 -72.865,319.878 -61.396,287.681 -66.248,287.681 -71.64,303.631 
		-71.729,303.631 -77.121,287.681 -81.973,287.681 	"/>
	<path class="st1" d="M-128.188,278.471c1.679,0,3.041,1.361,3.041,3.041c0,1.679-1.362,3.041-3.041,3.041
		c-1.68,0-3.042-1.362-3.042-3.041C-131.23,279.833-129.868,278.471-128.188,278.471"/>
	<path class="st1" d="M-99.281,278.471c1.68,0,3.042,1.361,3.042,3.041c0,1.679-1.362,3.041-3.042,3.041
		c-1.679,0-3.04-1.362-3.04-3.041C-102.321,279.833-100.96,278.471-99.281,278.471"/>
	<path class="st1" d="M-260.566,278.471v31.395h22.035v-0.126c-1.486-1.517-2.674-3.328-3.466-5.337h-12.657v-25.932H-260.566z"/>
	<path class="st1" d="M-227.087,286.599c6.587,0,11.93,5.343,11.93,11.93c0,0.511-0.032,1.012-0.094,1.506h-1.171h-3.949h-6.452
		l6.334-3.464c-0.844-2.846-3.479-4.923-6.598-4.923c-3.8,0-6.882,3.082-6.882,6.882c0,3.8,3.082,6.883,6.882,6.883
		c2.298,0,4.333-1.128,5.583-2.859h5.651c-1.651,4.609-6.058,7.907-11.233,7.907c-6.587,0-11.93-5.343-11.93-11.931
		C-239.017,291.943-233.674,286.599-227.087,286.599"/>
	<path class="st1" d="M-201.473,286.599c-6.587,0-11.93,5.343-11.93,11.93c0,0.511,0.032,1.012,0.094,1.506h5.12
		c-0.109-0.485-0.165-0.988-0.165-1.506c0-3.8,3.082-6.882,6.882-6.882c2.971,0,5.503,1.884,6.466,4.522v4.719
		c-0.963,2.638-3.495,4.523-6.466,4.523c-2.298,0-4.333-1.128-5.583-2.859h-5.651c1.651,4.609,6.057,7.907,11.233,7.907
		c2.383,0,4.603-0.699,6.466-1.905v1.311h5.463V298.53v-19.97h-5.463v9.943C-196.87,287.3-199.09,286.599-201.473,286.599"/>
	<path class="st0" d="M-155.136,310.458v-19.255l-6.947-3.51h6.947v-3.015c0.015-1.425,0.285-2.595,0.817-3.51
		c0.541-0.915,1.275-1.597,2.206-2.04c0.93-0.443,1.994-0.66,3.187-0.66h2.97v4.321h-2.61c-0.735-0.008-1.244,0.127-1.545,0.42
		c-0.301,0.293-0.443,0.78-0.435,1.47v3.015h4.59v3.51h-4.59v19.255H-155.136z"/>
	<path class="st0" d="M-143.88,310.458v-19.255h-2.296v-3.51h2.296v-3.015c0.015-1.425,0.285-2.595,0.817-3.51
		c0.54-0.915,1.275-1.597,2.205-2.04c0.93-0.443,1.994-0.66,3.187-0.66h2.971v4.321h-2.61c-0.735-0.008-1.245,0.127-1.546,0.42
		c-0.3,0.293-0.442,0.78-0.435,1.47v3.015h6.426l-6.426,3.51v19.255H-143.88z"/>
	<polygon class="st1" points="-122.856,310.46 -118.351,310.46 -118.351,292.017 -109.232,292.017 -109.232,310.46 -104.726,310.46 
		-104.726,287.681 -122.856,287.681 	"/>
</g>
</svg>
